<svg width="301" height="135" xmlns="http://www.w3.org/2000/svg">
    <g fill="none" fill-rule="evenodd">
        <path d="M132 0h300v130c0 5.523-4.477 10-10 10H132V0z" fill="#FAFAFA" />
        <path
            d="M158.852 125.35c7.354 0 13.383-3.036 18.087-9.108 4.703-6.072 7.055-13.725 7.055-22.961 0-9.749-3.336-18.3-10.006-25.655l51.566-21.55c.343 10.09 4.02 18.643 11.032 25.655 6.67 6.328 13.768 9.92 21.294 10.775 7.525.855 13.939-1.283 19.24-6.414 4.96-4.96 7.013-11.245 6.158-18.856-.855-7.611-4.532-14.666-11.032-21.165-.855-.856-2.095-1.924-3.72-3.207-1.624-1.283-4.532-2.865-8.722-4.746-4.19-1.882-8.424-2.908-12.7-3.079l21.55-52.08c3.08 2.908 6.8 5.26 11.16 7.056 4.362 1.796 7.526 2.822 9.493 3.078 1.967.257 3.463.385 4.49.385 9.235 0 16.889-2.352 22.96-7.055 6.072-4.703 9.108-10.732 9.108-18.087 0-7.354-3.036-13.426-9.108-18.215-6.071-4.788-13.725-7.183-22.96-7.183-9.75 0-18.13 3.335-25.142 10.006l-21.55-51.31c4.275-.342 8.508-1.454 12.699-3.335 4.19-1.882 7.14-3.464 8.85-4.746 1.711-1.283 2.908-2.267 3.592-2.95 6.5-6.5 10.177-13.555 11.032-21.166.855-7.611-1.197-14.067-6.157-19.37-5.302-5.301-11.759-7.482-19.37-6.541-7.61.94-14.666 4.66-21.165 11.16-7.012 7.012-10.69 15.478-11.032 25.398l-51.566-21.55c6.67-7.013 10.006-15.479 10.006-25.399 0-9.406-2.352-17.06-7.055-22.96-4.704-5.901-10.733-8.852-18.087-8.852-7.355 0-13.383 2.95-18.087 8.851-4.703 5.9-7.055 13.555-7.055 22.961 0 9.92 3.506 18.386 10.519 25.399l-52.593 21.55c0-9.92-3.506-18.386-10.518-25.399-6.5-6.499-13.555-10.219-21.166-11.16-7.61-.94-14.067 1.24-19.369 6.543-5.302 5.302-7.44 11.758-6.414 19.369 1.026 7.61 4.79 14.666 11.288 21.165 6.67 6.67 15.051 10.348 25.142 11.032l-21.55 51.31c-7.012-6.67-15.393-10.006-25.142-10.006-9.406 0-17.103 2.395-23.089 7.183-5.986 4.79-8.98 10.861-8.98 18.215 0 7.355 2.994 13.426 8.98 18.215 5.986 4.618 13.683 6.927 23.09 6.927 1.026 0 2.522-.128 4.489-.385 1.967-.256 5.13-1.282 9.492-3.078 4.362-1.796 8.082-4.148 11.16-7.055L70.6 25.039c-9.749.342-18.13 4.02-25.142 11.032-6.499 6.499-10.262 13.554-11.288 21.165-1.026 7.61 1.112 13.896 6.414 18.856 5.302 5.131 11.716 7.27 19.241 6.414 7.526-.855 14.623-4.447 21.294-10.775 7.012-7.012 10.518-15.564 10.518-25.655l52.593 21.55c-7.013 7.354-10.519 15.906-10.519 25.655 0 9.236 2.352 16.89 7.055 22.961 4.704 6.072 10.732 9.108 18.087 9.108zm0-283.23c-7.012-4.276-10.519-10.604-10.519-18.985 0-5.302.941-9.492 2.822-12.57 1.882-3.08 4.447-4.618 7.697-4.618s5.815 1.539 7.696 4.617c1.882 3.08 2.822 7.27 2.822 12.571 0 .856-.128 2.138-.384 3.849-.257 1.71-1.283 4.19-3.079 7.44-1.796 3.25-4.148 5.815-7.055 7.696zm-81.84 34.12c-8.209 1.711-15.221-.341-21.036-6.156-3.592-3.42-5.9-7.013-6.927-10.775-1.026-3.763-.513-6.67 1.54-8.723 2.394-2.223 5.472-2.95 9.235-2.18 3.763.769 7.355 2.864 10.775 6.285l1.026 1.283a27.608 27.608 0 012.31 3.206c.683 1.112 1.41 2.609 2.18 4.49a17.108 17.108 0 011.283 5.772c.085 1.967-.043 4.233-.385 6.799zm174.197-.512c-3.591 1.026-7.098 1.197-10.518.513-.342-2.566-.47-4.832-.385-6.799.086-1.967.47-3.89 1.154-5.772.685-1.881 1.369-3.378 2.053-4.49a104.81 104.81 0 012.052-3.206l1.026-1.283c3.763-3.42 7.526-5.516 11.289-6.286 3.762-.77 6.67-.042 8.722 2.181 2.395 2.052 3.122 4.96 2.18 8.723-.94 3.762-3.291 7.354-7.054 10.775-.684.684-1.71 1.539-3.079 2.565-1.368 1.026-3.848 2.053-7.44 3.079zM158.852 58.134L88.044 28.63 58.541-41.664l29.503-71.064 70.808-29.246 70.807 29.246 28.99 71.064-28.99 70.295-70.807 29.503zM23.907-31.146c-5.302 0-9.535-.94-12.699-2.821-3.164-1.881-4.746-4.447-4.746-7.697s1.625-5.9 4.874-7.953c3.25-2.052 7.44-3.078 12.571-3.078.856 0 2.096.128 3.72.385 1.625.256 4.062 1.325 7.312 3.207 3.25 1.88 5.815 4.36 7.696 7.44-1.881 2.907-4.446 5.259-7.696 7.055-3.25 1.795-5.687 2.822-7.312 3.078-1.624.257-2.864.385-3.72.385zm269.89 0c-.856 0-2.096-.127-3.72-.384-1.625-.256-4.063-1.283-7.312-3.078-3.25-1.796-5.815-4.148-7.697-7.056 1.882-3.078 4.447-5.558 7.697-7.44 3.25-1.88 5.687-2.95 7.311-3.206 1.625-.257 2.865-.385 3.72-.385 4.96 0 9.108 1.026 12.443 3.078 3.335 2.053 5.003 4.704 5.003 7.953 0 3.079-1.625 5.602-4.875 7.569-3.25 1.966-7.44 2.95-12.57 2.95zM59.695 67.884c-3.848.855-6.884.256-9.108-1.796-2.052-2.053-2.608-4.96-1.667-8.723.94-3.763 3.292-7.525 7.055-11.288 5.986-5.986 12.998-7.953 21.037-5.9 2.052 7.696-.086 14.708-6.414 21.036-3.42 3.592-7.055 5.815-10.903 6.67zm206.906-1.796c-2.052 2.052-5.002 2.65-8.85 1.796-3.849-.856-7.569-3.079-11.16-6.67-.685-.685-1.497-1.71-2.438-3.08-.94-1.367-1.924-3.847-2.95-7.44-1.026-3.59-1.197-7.097-.513-10.518 8.038-2.052 15.05-.085 21.037 5.901 3.763 3.763 6.114 7.525 7.055 11.288.94 3.763.214 6.67-2.18 8.723zm-107.75 44.64c-3.079 0-5.601-1.626-7.568-4.875-1.967-3.25-2.95-7.44-2.95-12.571 0-8.723 3.506-15.05 10.518-18.985 2.907 1.71 5.26 4.233 7.055 7.569 1.796 3.335 2.822 5.857 3.079 7.568.256 1.71.384 2.993.384 3.848 0 5.13-.983 9.321-2.95 12.57-1.967 3.25-4.49 4.875-7.568 4.875z"
            fill="#FFF" fill-rule="nonzero">
            <animateTransform attributeName="transform" type="rotate" from="0 158.5 -41.5" to="360 158.5 -41.5" dur="7s"
                repeatCount="indefinite" />
        </path>
    </g>
</svg>