<svg width="16" height="17" xmlns="http://www.w3.org/2000/svg">
    <path
        d="M8.076 16.423A7.709 7.709 0 0012 15.382a7.752 7.752 0 002.856-2.838 7.603 7.603 0 001.054-3.916 7.66 7.66 0 00-1.054-3.936A7.786 7.786 0 0012 1.842 7.673 7.673 0 008.076.795c-1.413 0-2.72.349-3.923 1.047a7.738 7.738 0 00-2.85 2.85A7.696 7.696 0 00.256 8.628c0 1.413.349 2.719 1.047 3.916a7.704 7.704 0 002.85 2.838 7.709 7.709 0 003.923 1.04zm0-10.525c-.49 0-.895-.137-1.212-.412-.318-.275-.476-.633-.476-1.073v-.127c0-.44.158-.793.476-1.06.317-.267.721-.4 1.212-.4s.895.133 1.213.4c.317.267.476.62.476 1.06v.127c0 .44-.159.798-.476 1.073-.318.275-.722.412-1.213.412zm.241 8.341c-.389 0-.696-.14-.92-.419-.224-.279-.336-.634-.336-1.066v-3.58c-.5 0-.862-.102-1.086-.305a.985.985 0 01-.336-.762c0-.304.101-.558.304-.761.203-.203.474-.305.813-.305h1.422c.414 0 .749.142 1.003.425.254.284.38.637.38 1.06v4.228c0 .44-.105.798-.317 1.073-.211.275-.52.412-.927.412z"
        fill="#007AC9" fill-rule="nonzero" /></svg>