<svg width="18" height="18" xmlns="http://www.w3.org/2000/svg">
    <path
        d="M9 0a9 9 0 110 18A9 9 0 019 0zm.27 1.087V1.8a.27.27 0 01-.54 0v-.713a7.867 7.867 0 00-3.453.925l.357.618a.27.27 0 11-.468.27l-.356-.617A7.977 7.977 0 002.283 4.81l.616.356a.27.27 0 11-.27.467l-.617-.356a7.865 7.865 0 00-.925 3.453H1.8a.27.27 0 110 .54h-.713a7.863 7.863 0 00.925 3.453l.618-.357a.27.27 0 01.27.468l-.617.355a7.98 7.98 0 002.527 2.528l.356-.617a.27.27 0 11.467.27l-.356.618a7.864 7.864 0 003.453.925V16.2a.27.27 0 11.54 0v.713a7.863 7.863 0 003.453-.925l-.357-.618a.27.27 0 01.468-.27l.355.617a7.98 7.98 0 002.528-2.528l-.617-.355a.27.27 0 11.27-.468l.618.357a7.865 7.865 0 00.925-3.453H16.2a.27.27 0 010-.54h.713a7.867 7.867 0 00-.925-3.453l-.618.356a.27.27 0 01-.27-.467l.617-.356a7.977 7.977 0 00-2.528-2.527l-.355.616a.27.27 0 11-.468-.27l.357-.617a7.866 7.866 0 00-3.453-.925zM9 2.34a6.66 6.66 0 014.28 1.558L9 9V2.34z"
        fill="#333" fill-rule="evenodd" /></svg>