<svg width="24" height="24" xmlns="http://www.w3.org/2000/svg">
    <path
        d="M20.112 23.785V12.759h2.19c.571 0 .977-.267 1.218-.8.09-.203.134-.4.134-.59 0-.305-.127-.584-.381-.838L13.333.59C12.925.196 12.424 0 11.827 0c-.597 0-1.098.197-1.504.59l-9.94 9.94c-.255.267-.382.553-.382.858a1.21 1.21 0 00.115.571c.228.533.64.8 1.237.8h2.19v11.026h16.568zM8.8 15.825H6.115v-2.876H8.8v2.876zm4.456 0h-2.704v-2.876h2.704v2.876zM8.8 20.47H6.115v-2.875H8.8v2.875zm4.456 0h-2.704v-2.875h2.704v2.875z"
        fill="#666" fill-rule="nonzero" /></svg>