<svg width="25" height="25" xmlns="http://www.w3.org/2000/svg">
    <path
        d="M4.922 18.027c-.56-1.64-.84-4.518-.84-8.632 0-.287.013-.69.04-1.211l-.274-.118a1.043 1.043 0 01-.196.274c-.195.195-.41.293-.644.293a.68.68 0 01-.703-.781.96.96 0 01.293-.567c.078-.078.169-.143.273-.195l-.156-.371a1.243 1.243 0 01-.332.078.935.935 0 01-.625-.215.685.685 0 01-.254-.547c0-.221.085-.403.254-.547a.935.935 0 01.625-.215c.065 0 .176.026.332.079l.156-.372a1.043 1.043 0 01-.273-.195c-.183-.182-.284-.38-.303-.596a.668.668 0 01.205-.556c.13-.13.3-.196.508-.196.234 0 .449.098.644.293.078.079.144.17.196.274l.37-.137a1.24 1.24 0 01-.077-.351c0-.248.071-.456.214-.625a.685.685 0 01.547-.254c.209 0 .384.081.528.244.143.163.215.374.215.635 0 .117-.02.234-.06.351l.372.137c.052-.104.117-.195.195-.274.196-.195.41-.292.645-.292.208 0 .377.065.508.195.156.156.221.358.195.605-.013.183-.11.365-.293.547-.078.078-.17.143-.273.195l.136.372a1.24 1.24 0 01.352-.079c.247 0 .452.072.615.215a.696.696 0 01.244.547c0 .326-.169.554-.508.684h8.633V0H0v18.027h4.922zm-.02-14.14c.13-.078.196-.202.196-.371 0-.209-.065-.313-.196-.313-.13 0-.195.104-.195.313 0 .169.065.293.195.37zm8.985.37H10a.389.389 0 01-.254-.097.389.389 0 01-.098-.254c0-.09.036-.172.108-.244A.337.337 0 0110 3.555h3.887c.104 0 .189.035.254.107a.353.353 0 010 .488.327.327 0 01-.254.108zm-10.508.255a.398.398 0 00-.01-.196.59.59 0 00-.068-.156l-.04-.039c-.156-.156-.28-.189-.37-.098-.092.092-.059.215.097.372a.57.57 0 00.059.048c.026.02.071.04.137.059.065.02.13.023.195.01zm3.242-.01a.59.59 0 00.156-.068l.04-.04c.156-.156.188-.28.097-.37-.091-.092-.215-.06-.371.097a.57.57 0 00-.049.059.467.467 0 00-.058.136.398.398 0 00-.01.196c.065.013.13.01.195-.01zM4.161 7.5a.923.923 0 01.321-.557.894.894 0 01.596-.224h1.29l.292-.684-.508-1.25-1.25-.508-1.25.508-.507 1.25.507 1.25.508.215zm9.726-1.7H10a.389.389 0 01-.254-.097.343.343 0 01-.098-.254c0-.104.036-.189.108-.254A.353.353 0 0110 5.098h3.887c.104 0 .189.032.254.097s.097.15.097.254a.343.343 0 01-.097.254.343.343 0 01-.254.098zm-11.504.43a.384.384 0 00.351-.195.384.384 0 00-.351-.195c-.209 0-.313.065-.313.195s.104.195.313.195zm5.039 0c.208 0 .312-.065.312-.195s-.104-.195-.312-.195c-.17 0-.293.065-.371.195.078.13.202.195.37.195zm-4.16 1.72a.57.57 0 00.049-.06.467.467 0 00.058-.136.398.398 0 00.01-.195.398.398 0 00-.195.01.59.59 0 00-.157.068l-.039.039c-.156.156-.189.28-.097.37.09.092.214.06.37-.097zM8.34 24.042l16.387-.02c-1.303-1.757-2.331-3.951-3.086-6.582a29.016 29.016 0 01-1.133-8.046c0-.6.02-1.179.058-1.739H5.078C5.04 8.23 5.02 8.81 5.02 9.395c0 3.15.276 5.891.83 8.222.553 2.33 1.383 4.473 2.49 6.426zm2.715-7.363a.862.862 0 01-.606-.235 1.497 1.497 0 01-.37-.508.951.951 0 01-.079-.39c-.04-.013-.12-.042-.244-.088a10.717 10.717 0 00-.303-.107 1.195 1.195 0 01-.078.253.612.612 0 01-.547.313c-.156 0-.325-.059-.508-.176a.748.748 0 01-.332-.41.636.636 0 01.078-.645.538.538 0 01.235-.214l-.313-.47a.821.821 0 01-.37.079c-.196 0-.378-.052-.548-.156a.785.785 0 01-.37-.528.547.547 0 01.195-.546c.143-.118.332-.176.566-.176.065 0 .176.026.332.078.039-.17.085-.32.137-.45a1.144 1.144 0 01-.313-.195c-.195-.195-.293-.403-.293-.625 0-.169.065-.319.196-.449.13-.13.28-.195.449-.195.221 0 .43.098.625.293a.87.87 0 01.176.293 1.66 1.66 0 00.234-.088 5.47 5.47 0 00.234-.108.9.9 0 01-.058-.351c.026-.221.097-.404.215-.547a.685.685 0 01.546-.254c.235 0 .404.091.508.274a.881.881 0 01.117.566 1.185 1.185 0 01-.097.332c.052.026.123.059.215.098.09.039.162.065.214.078.013-.026.085-.124.215-.293.222-.195.43-.293.625-.293.17 0 .32.065.45.195a.608.608 0 01.175.45c0 .22-.09.423-.273.605a.98.98 0 01-.293.215c.039.09.117.24.234.449a.904.904 0 01.371-.078c.196 0 .378.052.547.156.196.13.313.306.352.527a.547.547 0 01-.196.547c-.13.117-.306.176-.527.176-.065 0-.176-.026-.332-.078 0 .039-.01.107-.03.205-.019.098-.035.173-.048.225.17.052.3.123.39.214.248.209.404.398.47.567.064.195.058.358-.02.488-.078.143-.222.215-.43.215-.221 0-.456-.091-.703-.273a1.775 1.775 0 01-.313-.313 1.85 1.85 0 01-.332.156c.079.091.144.202.196.332.09.209.117.39.078.547-.052.209-.202.313-.45.313zm-1.211-5.508l.02-.02c.025 0 .038-.006.038-.02a.32.32 0 00.098-.234.404.404 0 00-.04-.234c-.012-.039-.032-.059-.058-.059-.013 0-.039.02-.078.06a.299.299 0 00-.097.214l.02.039v.059c0 .065.019.117.058.156l.039.039zm8.828.781H14.55a.43.43 0 01-.313-.137.397.397 0 01-.117-.293c0-.117.042-.218.127-.302a.413.413 0 01.303-.127h4.12a.41.41 0 01.294.136.41.41 0 01.137.293.413.413 0 01-.127.303.413.413 0 01-.303.127zm-7.227-.137a.32.32 0 00.235-.097c.09-.091.136-.17.136-.235 0-.039-.006-.065-.02-.078-.012-.013-.032-.02-.058-.02-.117 0-.215.066-.293.196a.45.45 0 00-.058.176v.058h.058zm-3.203 0c.04 0 .059-.006.059-.02 0-.077-.04-.168-.117-.273-.092-.09-.17-.136-.235-.136-.026 0-.045.006-.058.02-.013.012-.02.032-.02.058 0 .078.04.156.117.234a.45.45 0 00.254.117zm2.227 3.262c.39-.195.722-.358.996-.488.052-.443.124-.84.215-1.192a20.66 20.66 0 01-.645-1.21c-.182-.079-.397-.17-.644-.274-.248-.104-.43-.182-.547-.234-.156.065-.352.15-.586.254-.235.104-.43.188-.586.254-.156.468-.274.859-.352 1.171.287.47.547.873.782 1.211.182.065.41.15.683.254.274.104.501.189.684.254zm8.418-1.27h-4.121c-.274 0-.437-.136-.489-.41-.026-.13 0-.234.078-.312a.41.41 0 01.293-.137h4.122c.117 0 .224.04.322.117a.424.424 0 01.166.293c.026.144 0 .254-.078.332-.065.079-.163.118-.293.118zm-11.348-.292a.173.173 0 01.078-.02.424.424 0 00.156-.078l.04-.04c-.014 0-.02-.006-.02-.019l-.04-.02c-.09-.064-.168-.097-.233-.097-.118 0-.202.02-.254.059-.013.013-.02.039-.02.078 0 .013.02.039.059.078.039.04.117.059.234.059zm4.941 0c.13 0 .215-.02.254-.059.013-.013.02-.039.02-.078 0-.013-.02-.04-.059-.078-.039-.04-.117-.059-.234-.059a.173.173 0 00-.078.02.424.424 0 00-.156.078l-.04.039c.014 0 .02.006.02.02l.04.019c.09.065.168.098.233.098zm6.973 2.129h-4.14a.561.561 0 01-.323-.118.593.593 0 01-.224-.273.33.33 0 01.312-.45H19.2c.104 0 .212.04.322.118.111.078.186.17.225.273.04.13.026.241-.039.332-.052.078-.137.118-.254.118zm-10.8-.274c.077 0 .143-.039.195-.117 0-.026.006-.052.02-.078a.207.207 0 000-.176c0-.026-.007-.046-.02-.059h-.059c-.104.013-.176.052-.215.118-.052.09-.065.169-.039.234l.059.059c.013.013.032.02.058.02zm3.788 0c.013 0 .026-.006.04-.02.012-.012.012-.032 0-.058a.778.778 0 00-.196-.234.245.245 0 00-.098-.059.447.447 0 00-.234-.059c.052.144.117.241.195.293.144.092.241.137.293.137zm-1.562.781c.013 0 .026-.013.039-.039.026-.039.013-.117-.04-.234 0-.026-.012-.052-.038-.078a.425.425 0 00-.156-.176c0-.013-.007-.02-.02-.02-.013 0-.026-.006-.039-.02-.013.014-.02.027-.02.04-.039.052-.039.13 0 .234a.418.418 0 00.137.235c.04.039.085.058.137.058z"
        fill="#007AC9" fill-rule="nonzero" /></svg>