<svg width="27" height="23" xmlns="http://www.w3.org/2000/svg">
    <path
        d="M23.281 9.941l.82-1.25a26.43 26.43 0 001.67-2.91c.554-1.107.83-1.933.83-2.48a3.18 3.18 0 00-.966-2.334C24.99.322 24.205 0 23.28 0c-.924 0-1.709.322-2.353.967A3.18 3.18 0 0019.96 3.3c0 .547.31 1.42.928 2.617.618 1.198 1.11 2.077 1.474 2.637.365.56.67 1.022.918 1.386zm0-5.195c-.403 0-.752-.143-1.045-.43a1.418 1.418 0 01-.44-1.054c0-.39.147-.726.44-1.006a1.46 1.46 0 011.045-.42c.404 0 .752.14 1.045.42.293.28.44.615.44 1.006 0 .416-.147.768-.44 1.054-.293.287-.641.43-1.045.43zM5.645 20.234l1.425-2.148c.938-1.42 1.882-3.073 2.832-4.961.95-1.888 1.426-3.294 1.426-4.219 0-1.562-.553-2.894-1.66-3.994-1.107-1.1-2.448-1.65-4.023-1.65-1.563 0-2.894.55-3.995 1.65C.55 6.012 0 7.344 0 8.906c0 .586.202 1.39.605 2.412a25.273 25.273 0 001.358 2.9 75.098 75.098 0 001.719 2.95 85.8 85.8 0 001.347 2.158c.254.384.46.687.616.908zm0-8.847c-.69 0-1.283-.244-1.778-.733-.495-.488-.742-1.07-.742-1.748 0-.703.247-1.299.742-1.787a2.441 2.441 0 011.778-.732c.703 0 1.298.244 1.787.732.488.488.732 1.084.732 1.787 0 .69-.244 1.276-.732 1.758-.489.482-1.084.723-1.787.723zm15.234.078l.8-1.035c-.676-.586-1.477-.88-2.402-.88-.182 0-.364.014-.547.04-.169 0-.358.026-.566.078l.273 1.328c.157-.052.293-.078.41-.078.118-.013.235-.02.352-.02.651 0 1.211.19 1.68.567zm-6.074 2.812l1.308-.136a3.736 3.736 0 01-.02-.371c0-.782.261-1.413.782-1.895l-.957-.879c-.768.703-1.152 1.582-1.152 2.637 0 .208.013.423.039.644zm1.035 4.864a6.223 6.223 0 00.469-2.325c0-.156-.007-.312-.02-.468l-1.328.117v.332c0 .69-.104 1.302-.313 1.836l1.192.508zm-4.082 3.535c1.172-.287 2.148-.86 2.93-1.719l-.958-.879a4.374 4.374 0 01-2.285 1.309l.313 1.289zm-2.149.156l.157-1.328c-.847-.13-1.57-.423-2.168-.879l-.801 1.055a5.574 5.574 0 002.812 1.152z"
        fill="#666" fill-rule="nonzero" /></svg>