<svg width="345" height="480" xmlns="http://www.w3.org/2000/svg">
    <path
        d="M331 .5H14a13.458 13.458 0 00-9.546 3.954A13.458 13.458 0 00.5 14v77.514a8.472 8.472 0 015.51 2.476A8.473 8.473 0 018.5 100a8.473 8.473 0 01-2.49 6.01 8.472 8.472 0 01-5.51 2.476V466c0 3.728 1.511 7.103 3.954 9.546A13.458 13.458 0 0014 479.5h317c3.728 0 7.103-1.511 9.546-3.954A13.458 13.458 0 00344.5 466V108.486a8.472 8.472 0 01-5.51-2.476 8.473 8.473 0 01-2.49-6.01c0-2.347.951-4.472 2.49-6.01a8.472 8.472 0 015.51-2.476V14c0-3.728-1.511-7.103-3.954-9.546A13.458 13.458 0 00331 .5z"
        fill="#FFF" stroke="#dddddd" fill-rule="evenodd" /></svg>